<svg version="1.1"
      xmlns="http://www.w3.org/2000/svg"
      xmlns:xlink="http://www.w3.org/1999/xlink"  id="snapshot-20714" width="250" height="250" viewBox="0 0 250 250"><desc>This image was made on Patterninja.com</desc><defs>
<!-- image 17104 -->
<g id="transformed-17104" data-image="17104" transform="translate(-125, -85) rotate(45, 125, 85)"><g><svg version="1.1" width="250px" height="170px" viewBox="0 0 250 170"><g id="original-17104"><svg xmlns="http://www.w3.org/2000/svg" fill="none" viewBox="0 0 279 190" xmlns:xlink="http://www.w3.org/1999/xlink" version="1.1" preserveAspectRatio="xMidYMid meet">
  <path d="M31.949 13.735c50.8-32 89.166-.666 102 19 4 3.2-1.667 8.667-5 11-36.5 33-16.5 50.5 0 61.5s-3.5 16.5-16.5 20 0 6.5 9.5 14.5-14.5 9.5-22 9.5-.5 9 7.5 11c6.4 1.6 0 7.667-4 10.5-10 46.4-60.5-3.333-84.5-34-16.834-27.666-37.8-91 13-123z" fill="rgba(255, 255, 255, 0.1)" stroke="none"/>
  <path d="M246.325 13.735c-50.8-32-89.167-.666-102 19-4 3.2 1.666 8.667 4.999 11 36.5 33 16.5 50.5 0 61.5s3.5 16.5 16.5 20 0 6.5-9.5 14.5 14.5 9.5 22 9.5.5 9-7.5 11c-6.4 1.6 0 7.667 4 10.5 10 46.4 60.501-3.333 84.501-34 16.833-27.666 37.8-91-13-123z" fill="rgba(255, 255, 255, 0.1)" stroke="none"/>
</svg>
</g></svg></g></g>
<!-- /image 17104 -->
</defs><rect x="0" y="0" width="250" height="250" fill="rgba(255, 255, 255, 0)"></rect><use xlink:href="#transformed-17104" transform="translate(-250, -250)"></use><use xlink:href="#transformed-17104" transform="translate(0, -250)"></use><use xlink:href="#transformed-17104" transform="translate(250, -250)"></use><use xlink:href="#transformed-17104" transform="translate(-250, 0)"></use><use xlink:href="#transformed-17104" transform="translate(0, 0)"></use><use xlink:href="#transformed-17104" transform="translate(250, 0)"></use><use xlink:href="#transformed-17104" transform="translate(-250, 250)"></use><use xlink:href="#transformed-17104" transform="translate(0, 250)"></use><use xlink:href="#transformed-17104" transform="translate(250, 250)"></use></svg>